<svg width="42" height="35" viewBox="0 0 42 35" fill="none" xmlns="http://www.w3.org/2000/svg">
<path d="M41 1.01828C39.2589 2.24642 37.3311 3.18575 35.2909 3.8001C34.1959 2.54103 32.7406 1.64863 31.1219 1.2436C29.5032 0.838575 27.7991 0.940457 26.2401 1.53547C24.6812 2.13049 23.3426 3.18992 22.4054 4.5705C21.4682 5.95107 20.9776 7.58617 21 9.25465V11.0728C17.8048 11.1557 14.6387 10.447 11.7837 9.01C8.92862 7.57297 6.4733 5.45217 4.63636 2.83646C4.63636 2.83646 -2.63636 19.2001 13.7273 26.4728C9.98278 29.0146 5.5221 30.2891 1 30.1092C17.3636 39.2001 37.3636 30.1092 37.3636 9.2001C37.362 8.69365 37.3133 8.18845 37.2182 7.69101C39.0738 5.861 40.3833 3.55049 41 1.01828V1.01828Z" stroke="#FEFEFC" stroke-width="2" stroke-linecap="round" stroke-linejoin="round"/>
</svg>
