<svg width="37" height="31" viewBox="0 0 37 31" fill="none" xmlns="http://www.w3.org/2000/svg">
<path d="M36 1.016C34.4765 2.09062 32.7897 2.91254 31.0045 3.45009C30.0464 2.3484 28.773 1.56755 27.3566 1.21315C25.9403 0.858753 24.4492 0.9479 23.0851 1.46854C21.7211 1.98917 20.5498 2.91618 19.7297 4.12418C18.9097 5.33218 18.4804 6.7629 18.5 8.22282V9.81372C15.7042 9.88622 12.9338 9.26615 10.4357 8.00875C7.93755 6.75135 5.78914 4.89564 4.18182 2.60691C4.18182 2.60691 -2.18182 16.9251 12.1364 23.2887C8.85993 25.5128 4.95684 26.6279 1 26.4705C15.3182 34.4251 32.8182 26.4705 32.8182 8.17509C32.8167 7.73195 32.7741 7.2899 32.6909 6.85463C34.3146 5.25337 35.4604 3.23168 36 1.016V1.016Z" stroke="#FEFEFC" stroke-width="2" stroke-linecap="round" stroke-linejoin="round"/>
</svg>
